<svg xmlns="http://www.w3.org/2000/svg" xmlns:xlink="http://www.w3.org/1999/xlink" version="1.1" x="0px" y="0px" viewBox="0 0 67.697 67.697" enable-background="new 0 0 67.697 67.699" xml:space="preserve"><path d="M-0.001,33.848C-0.001,15.154,15.154,0,33.85-0.002l0,0v1.251v1.249C16.536,2.531,2.53,16.535,2.499,33.848l0,0  C2.53,51.16,16.536,65.164,33.85,65.197l0,0c17.311-0.033,31.315-14.037,31.348-31.349l0,0C65.165,16.535,51.161,2.531,33.85,2.498  l0,0V1.249v-1.251C52.544,0,67.698,15.154,67.698,33.848l0,0c0,18.694-15.154,33.848-33.848,33.848l0,0  C15.154,67.696-0.001,52.542-0.001,33.848L-0.001,33.848z" fill="white"/><path d="M20.208,47.488c-0.488-0.487-0.488-1.28,0-1.769l0,0l25.511-25.511c0.488-0.488,1.281-0.488,1.769,0l0,0  c0.488,0.488,0.488,1.279,0,1.767l0,0l-25.51,25.513c-0.244,0.244-0.564,0.366-0.885,0.366l0,0  C20.772,47.854,20.452,47.732,20.208,47.488L20.208,47.488z" fill="white"/><path d="M45.719,47.488l-25.511-25.51c-0.488-0.488-0.488-1.279,0-1.769l0,0c0.488-0.486,1.281-0.486,1.769,0l0,0l25.51,25.511  c0.488,0.488,0.488,1.281,0,1.769l0,0c-0.243,0.244-0.563,0.366-0.884,0.366l0,0C46.283,47.854,45.963,47.732,45.719,47.488  L45.719,47.488z" fill="white"/></svg>