<svg xmlns="http://www.w3.org/2000/svg" xmlns:xlink="http://www.w3.org/1999/xlink" version="1.1" x="0px" y="0px" viewBox="0 0 100 125" enable-background="new 0 0 100 100" xml:space="preserve"><path fill="none" d="M50,96.041c25.387,0,46.041-20.654,46.041-46.041C96.041,24.613,75.387,3.959,50,3.959  C24.613,3.959,3.959,24.613,3.959,50C3.959,75.387,24.613,96.041,50,96.041z M40.492,49.308l17.632-17.633  c0.383-0.383,1.002-0.383,1.385,0s0.383,1.002,0,1.385L42.569,50l16.939,16.94c0.383,0.382,0.383,1.002,0,1.385  c-0.191,0.191-0.441,0.287-0.692,0.287s-0.501-0.096-0.692-0.287L40.492,50.692C40.109,50.31,40.109,49.69,40.492,49.308z"/><path fill="white" d="M58.124,68.325c0.191,0.191,0.441,0.287,0.692,0.287s0.501-0.096,0.692-0.287c0.383-0.383,0.383-1.003,0-1.385L42.569,50  l16.939-16.94c0.383-0.383,0.383-1.002,0-1.385s-1.002-0.383-1.385,0L40.492,49.308c-0.383,0.382-0.383,1.002,0,1.385L58.124,68.325  z"/><path fill="white" d="M50,98c26.467,0,48-21.533,48-48C98,23.533,76.467,2,50,2C23.533,2,2,23.533,2,50C2,76.467,23.533,98,50,98z M50,3.959  c25.387,0,46.041,20.654,46.041,46.041c0,25.387-20.654,46.041-46.041,46.041C24.613,96.041,3.959,75.387,3.959,50  C3.959,24.613,24.613,3.959,50,3.959z"/></svg>