<svg xmlns="http://www.w3.org/2000/svg" xmlns:xlink="http://www.w3.org/1999/xlink" version="1.1" x="0px" y="0px" viewBox="0 0 100 125" enable-background="new 0 0 100 100" xml:space="preserve"><path fill="none" d="M50,3.959C24.613,3.959,3.959,24.613,3.959,50S24.613,96.041,50,96.041c25.387,0,46.041-20.654,46.041-46.041  S75.387,3.959,50,3.959z M59.509,50.692L41.876,68.325c-0.191,0.191-0.442,0.287-0.693,0.287s-0.501-0.096-0.692-0.287  c-0.383-0.383-0.383-1.003,0-1.385L57.431,50L40.491,33.06c-0.383-0.382-0.383-1.002,0-1.385c0.382-0.383,1.002-0.383,1.385,0  l17.632,17.633C59.892,49.69,59.892,50.31,59.509,50.692z"/><path fill="white" d="M41.876,31.675c-0.383-0.383-1.003-0.383-1.385,0c-0.383,0.383-0.383,1.003,0,1.385L57.431,50L40.491,66.94  c-0.383,0.382-0.383,1.002,0,1.385c0.191,0.191,0.442,0.287,0.692,0.287s0.501-0.096,0.693-0.287l17.632-17.633  c0.383-0.383,0.383-1.002,0-1.385L41.876,31.675z"/><path fill="white" d="M50,2C23.533,2,2,23.533,2,50s21.533,48,48,48c26.467,0,48-21.533,48-48S76.467,2,50,2z M50,96.041  C24.613,96.041,3.959,75.387,3.959,50S24.613,3.959,50,3.959c25.387,0,46.041,20.654,46.041,46.041S75.387,96.041,50,96.041z"/></svg>