<svg xmlns="http://www.w3.org/2000/svg" xmlns:xlink="http://www.w3.org/1999/xlink" version="1.1" x="0px" y="0px" viewBox="0 0 100 100" enable-background="new 0 0 100 100" xml:space="preserve"><path d="M85.1,30.2L71.1,16.3c-0.1-0.1-0.3-0.2-0.4-0.2h-5.4h-31H18c-2,0-3.6,1.6-3.6,3.6v63.7c0,2,1.6,3.6,3.6,3.6h10.4h44.2h9  c2,0,3.6-1.6,3.6-3.6V30.7C85.3,30.5,85.2,30.3,85.1,30.2z M64.7,17.3v17.6c0,0.7-0.6,1.3-1.3,1.3H57V17.3H64.7z M55.7,17.3v18.9  H36.2c-0.7,0-1.3-0.6-1.3-1.3V17.3H55.7z M29,85.8V61.7c0-5,4-9,9-9h25c5,0,9,4,9,9v24.1H29z M84,83.4c0,1.3-1.1,2.4-2.4,2.4h-8.4  V61.7c0-5.6-4.6-10.2-10.2-10.2H38c-5.6,0-10.2,4.6-10.2,10.2v24.1H18c-1.3,0-2.4-1.1-2.4-2.4V19.7c0-1.3,1.1-2.4,2.4-2.4h15.7v17.6  c0,1.4,1.2,2.6,2.6,2.6h27.1c1.4,0,2.6-1.2,2.6-2.6V17.3h4.6L84,30.9V83.4z M62.7,73.7c0,0.3-0.3,0.6-0.6,0.6H39.3  c-0.3,0-0.6-0.3-0.6-0.6c0-0.3,0.3-0.6,0.6-0.6h22.8C62.4,73.1,62.7,73.4,62.7,73.7z M62.7,64.1c0,0.3-0.3,0.6-0.6,0.6H39.3  c-0.3,0-0.6-0.3-0.6-0.6c0-0.3,0.3-0.6,0.6-0.6h22.8C62.4,63.5,62.7,63.7,62.7,64.1z" fill="white"></path></svg>